# xmcd
#
# Track frame offsets:
#	150
#	22068
#	39082
#	54743
#	82586
#	104750
#	119635
#	145912
#	166089
#	185387
#	208071
#
# Disc length: 3376 seconds
#
# Revision: 0
# Processed by: cddbd v1.4PL0 Copyright (c) Steve Scherf et al.
# Submitted via: EasyCDDAExtractor 4.6.0.1
#
DISCID=930d2e0b
DTITLE=Corby Yates
DYEAR=2002
DGENRE=Blues
TTITLE0=Back From Yesterday
TTITLE1=Pretty As A Flower
TTITLE2=Te Ni Nee Ni Nu
TTITLE3=I Ain't Superstitious
TTITLE4=Salty Pain
TTITLE5=Too Sorry
TTITLE6=Hutin' Inside
TTITLE7=Testify
TTITLE8=Common Ground
TTITLE9=Maybe Next Time
TTITLE10=Hear My Train a Comin'
EXTD=
EXTT0=
EXTT1=
EXTT2=
EXTT3=
EXTT4=
EXTT5=
EXTT6=
EXTT7=
EXTT8=
EXTT9=
EXTT10=
PLAYORDER=
